<?xml version="1.0" encoding="UTF-8" standalone="no"?>
<!-- http://code.google.com/p/vector-playing-cards/ -->

<svg
   width="167.0869141pt"
   height="242.6669922pt"
   viewBox="0 0 167.0869141 242.6669922"
   xml:space="preserve"
   id="svg2"
   version="1.1"
   inkscape:version="1.4.3 (0d15f75, 2025-12-25)"
   sodipodi:docname="jack-diamonds-frame.svg"
   inkscape:export-filename="/home/byron/art/cards/final/PNGs/jack_of_diamonds2.png"
   inkscape:export-xdpi="215.44792"
   inkscape:export-ydpi="215.44792"
   xmlns:inkscape="http://www.inkscape.org/namespaces/inkscape"
   xmlns:sodipodi="http://sodipodi.sourceforge.net/DTD/sodipodi-0.dtd"
   xmlns:xlink="http://www.w3.org/1999/xlink"
   xmlns="http://www.w3.org/2000/svg"
   xmlns:svg="http://www.w3.org/2000/svg"
   xmlns:rdf="http://www.w3.org/1999/02/22-rdf-syntax-ns#"
   xmlns:cc="http://creativecommons.org/ns#"
   xmlns:dc="http://purl.org/dc/elements/1.1/"><metadata
   id="metadata43"><rdf:RDF><cc:Work
       rdf:about=""><dc:format>image/svg+xml</dc:format><dc:type
         rdf:resource="http://purl.org/dc/dcmitype/StillImage" /></cc:Work></rdf:RDF></metadata><defs
   id="defs41"><radialGradient
   inkscape:collect="always"
   xlink:href="#linearGradient3773"
   id="radialGradient3781"
   cx="-0.15782039"
   cy="-8.8345356"
   fx="-0.15782039"
   fy="-8.8345356"
   r="7.9997029"
   gradientTransform="matrix(-1.5842693,-0.02349808,0.03071979,-2.4775745,-0.24856378,-26.713507)"
   gradientUnits="userSpaceOnUse" /><linearGradient
   id="linearGradient3773"><stop
     style="stop-color:#000000;stop-opacity:1;"
     offset="0"
     id="stop3775" /><stop
     style="stop-color:#000000;stop-opacity:0.64885497;"
     offset="1"
     id="stop3777" /></linearGradient><radialGradient
   inkscape:collect="always"
   xlink:href="#linearGradient3773"
   id="radialGradient3957"
   cx="-0.15782039"
   cy="-8.8345356"
   fx="-0.15782039"
   fy="-8.8345356"
   r="7.9997029"
   gradientTransform="matrix(-1.5842693,-0.02349808,0.03071979,-2.4775745,-0.24856378,-26.713507)"
   gradientUnits="userSpaceOnUse" /><linearGradient
   id="linearGradient3959"><stop
     style="stop-color:#000000;stop-opacity:1;"
     offset="0"
     id="stop3961" /><stop
     style="stop-color:#000000;stop-opacity:0.64885497;"
     offset="1"
     id="stop3963" /></linearGradient><radialGradient
   r="81.902771"
   fy="509.47577"
   fx="168.02475"
   cy="509.47577"
   cx="168.02475"
   gradientTransform="matrix(1.2565605,-0.77740644,0.33663816,0.5361257,-221.20213,359.24256)"
   gradientUnits="userSpaceOnUse"
   id="radialGradient3975"
   xlink:href="#linearGradient3784-4"
   inkscape:collect="always" /><linearGradient
   id="linearGradient3784-4"><stop
     style="stop-color:#ffffff;stop-opacity:0.4351145;"
     offset="0"
     id="stop3786-8" /><stop
     style="stop-color:#000000;stop-opacity:0;"
     offset="1"
     id="stop3788-6" /></linearGradient><radialGradient
   inkscape:collect="always"
   xlink:href="#linearGradient3784-4-5"
   id="radialGradient3929"
   gradientUnits="userSpaceOnUse"
   gradientTransform="matrix(1.2565605,-0.77740644,0.33663816,0.5361257,-221.20213,359.24256)"
   cx="168.02475"
   cy="509.47577"
   fx="168.02475"
   fy="509.47577"
   r="81.902771" /><linearGradient
   id="linearGradient3784-4-5"><stop
     style="stop-color:#ffffff;stop-opacity:0.48854962;"
     offset="0"
     id="stop3786-8-0" /><stop
     style="stop-color:#000000;stop-opacity:0;"
     offset="1"
     id="stop3788-6-3" /></linearGradient><radialGradient
   inkscape:collect="always"
   xlink:href="#linearGradient3784-4-1"
   id="radialGradient3927"
   gradientUnits="userSpaceOnUse"
   gradientTransform="matrix(1.2565605,-0.77740644,0.33663816,0.5361257,-221.20213,359.24256)"
   cx="168.02475"
   cy="509.47577"
   fx="168.02475"
   fy="509.47577"
   r="81.902771" /><linearGradient
   id="linearGradient3784-4-1"><stop
     style="stop-color:#ffffff;stop-opacity:0.23664123;"
     offset="0"
     id="stop3786-8-03" /><stop
     style="stop-color:#000000;stop-opacity:0;"
     offset="1"
     id="stop3788-6-6" /></linearGradient><linearGradient
   id="linearGradient3768"><stop
     style="stop-color:#df0000;stop-opacity:1;"
     offset="0"
     id="stop3770" /><stop
     style="stop-color:#df0000;stop-opacity:0.67175573;"
     offset="1"
     id="stop3772" /></linearGradient><linearGradient
   id="linearGradient3784-4-6"><stop
     style="stop-color:#ffffff;stop-opacity:0.31297711;"
     offset="0"
     id="stop3786-8-8" /><stop
     style="stop-color:#000000;stop-opacity:0;"
     offset="1"
     id="stop3788-6-8" /></linearGradient><radialGradient
   r="81.902771"
   fy="492.63205"
   fx="159.35434"
   cy="492.63205"
   cx="159.35434"
   gradientTransform="matrix(1.0894779,-0.71513803,0.44645273,0.65626582,-244.93331,290.9185)"
   gradientUnits="userSpaceOnUse"
   id="radialGradient4013-8"
   xlink:href="#linearGradient3784-4-2"
   inkscape:collect="always" /><linearGradient
   id="linearGradient3784-4-2"><stop
     style="stop-color:#ffffff;stop-opacity:0.29007635;"
     offset="0"
     id="stop3786-8-1" /><stop
     style="stop-color:#000000;stop-opacity:0;"
     offset="1"
     id="stop3788-6-5" /></linearGradient><linearGradient
   id="linearGradient2984"><stop
     style="stop-color:#df0000;stop-opacity:1;"
     offset="0"
     id="stop2986" /><stop
     style="stop-color:#df0000;stop-opacity:0.64122134;"
     offset="1"
     id="stop2988" /></linearGradient><linearGradient
   id="linearGradient3784-4-4"><stop
     style="stop-color:#ffffff;stop-opacity:0.4351145;"
     offset="0"
     id="stop3786-8-8-2" /><stop
     style="stop-color:#000000;stop-opacity:0;"
     offset="1"
     id="stop3788-6-1" /></linearGradient>    <mask
   id="portraitHoleMask"
   maskUnits="userSpaceOnUse"
   x="0"
   y="0"
   width="167.0869141"
   height="242.6669922">
      <rect
   x="0"
   y="0"
   width="167.0869141"
   height="242.6669922"
   fill="white"
   id="rect1" />
      <g
   transform="matrix(0.73316112,0,0,0.81584336,22.32511,22.465901)"
   id="g1">
        <path
   fill="black"
   d="m 166.83691,235.54785 c 0,3.77735 -3.08691,6.86914 -6.87109,6.86914 H 7.1108398 C 3.3359375,242.41699 0.25,239.3252 0.25,235.54785 V 7.1201172 C 0.25,3.3427734 3.3359375,0.25 7.1108398,0.25 H 159.96582 c 3.78418,0 6.87109,3.0927734 6.87109,6.8701172 V 235.54785 z"
   id="path1" />
      </g>
    </mask>
</defs><sodipodi:namedview
   pagecolor="#ffffff"
   bordercolor="#666666"
   borderopacity="1"
   objecttolerance="10"
   gridtolerance="10"
   guidetolerance="10"
   inkscape:pageopacity="0"
   inkscape:pageshadow="2"
   inkscape:window-width="1505"
   inkscape:window-height="1037"
   id="namedview39"
   showgrid="false"
   inkscape:zoom="2.4336873"
   inkscape:cx="53.622337"
   inkscape:cy="150.79998"
   inkscape:window-x="51"
   inkscape:window-y="33"
   inkscape:window-maximized="0"
   inkscape:current-layer="svg2"
   inkscape:showpageshadow="2"
   inkscape:pagecheckerboard="0"
   inkscape:deskcolor="#d1d1d1"
   inkscape:document-units="pt" />
	



<text
   xml:space="preserve"
   style="font-style:normal;font-weight:normal;line-height:0%;font-family:'Bitstream Vera Sans';letter-spacing:0px;word-spacing:0px;fill:#df0000;fill-opacity:1;stroke:none"
   x="3.4022353"
   y="27.807926"
   id="text3788"
   inkscape:label="topLeftRank"><tspan
     sodipodi:role="line"
     id="tspan3790"
     x="3.4022353"
     y="27.807926"
     style="font-style:normal;font-variant:normal;font-weight:normal;font-stretch:normal;font-size:32px;line-height:1.25;font-family:Arial;-inkscape-font-specification:Arial;fill:#df0000;fill-opacity:1">J</tspan></text>
















<g
   transform="matrix(2.0401376,0,0,2.2959795,42.393512,49.582273)"
   id="layer1-2-6"
   style="fill:#df0000;fill-opacity:1"
   inkscape:label="topLeftInnerSuit"><path
     style="fill:#df0000;fill-opacity:1"
     inkscape:connector-curvature="0"
     id="dl-6"
     d="M 3.2433274,-4.7253274 C 1.1263274,-7.5893274 0,-10.5 0,-10.5 c 0,0 -1.1263274,2.9106726 -3.2433274,5.7746726 C -5.3613274,-1.8623274 -8,0 -8,0 -8,0 -5.3613274,1.8613274 -3.2433274,4.7263274 -1.1263274,7.5893274 0,10.5 0,10.5 0,10.5 1.1263274,7.5893274 3.2433274,4.7263274 5.3613274,1.8613274 8,0 8,0 8,0 5.3613274,-1.8623274 3.2433274,-4.7253274 z"
     sodipodi:nodetypes="ccccccccc" /></g><g
   id="innerBorder"
   style="fill:none;stroke:#000000;stroke-width:1.82777798;stroke-miterlimit:4;stroke-dasharray:none"
   transform="matrix(0.73316112,0,0,0.81584336,22.32511,22.465901)"
   inkscape:label="innerBorder"><path
     inkscape:connector-curvature="0"
     style="fill:none;stroke-width:1.82777798;stroke-miterlimit:4;stroke-dasharray:none"
     d="m 166.83691,235.54785 c 0,3.77735 -3.08691,6.86914 -6.87109,6.86914 H 7.1108398 C 3.3359375,242.41699 0.25,239.3252 0.25,235.54785 V 7.1201172 C 0.25,3.3427734 3.3359375,0.25 7.1108398,0.25 H 159.96582 c 3.78418,0 6.87109,3.0927734 6.87109,6.8701172 V 235.54785 z"
     id="path5-8" /><g
     style="fill:none;stroke:none"
     id="g7-4"><g
       id="g9-3"
       style="fill:none" /></g><g
     id="g15-1"
     style="fill:none;stroke-width:1.82777798;stroke-miterlimit:4;stroke-dasharray:none" /><g
     id="g19-4"
     style="fill:none;stroke-width:1.82777798;stroke-miterlimit:4;stroke-dasharray:none" /><g
     style="fill:none;stroke:none"
     id="g23-9"><g
       id="g25-2"
       style="fill:none" /></g><g
     style="fill:none;stroke:none"
     id="g31-0"><g
       id="g33-6"
       style="fill:none" /></g></g><g
   transform="matrix(1.128247,0,0,1.128247,11.157104,42.827004)"
   id="layer1-2-6-2"
   inkscape:label="topLeftSuit"><path
     style="fill:#df0000"
     inkscape:connector-curvature="0"
     id="dl-6-6"
     d="M 3.2433274,-4.7253274 C 1.1263274,-7.5893274 0,-10.5 0,-10.5 c 0,0 -1.1263274,2.9106726 -3.2433274,5.7746726 C -5.3613274,-1.8623274 -8,0 -8,0 -8,0 -5.3613274,1.8613274 -3.2433274,4.7263274 -1.1263274,7.5893274 0,10.5 0,10.5 0,10.5 1.1263274,7.5893274 3.2433274,4.7263274 5.3613274,1.8613274 8,0 8,0 8,0 5.3613274,-1.8623274 3.2433274,-4.7253274 z"
     sodipodi:nodetypes="ccccccccc" /></g><text
   xml:space="preserve"
   style="font-style:normal;font-weight:normal;line-height:0%;font-family:'Bitstream Vera Sans';letter-spacing:0px;word-spacing:0px;fill:#df0000;fill-opacity:1;stroke:none"
   x="-163.69514"
   y="-216.49971"
   id="text3788-4"
   transform="scale(-1)"
   inkscape:label="bottomRightRank"><tspan
     sodipodi:role="line"
     id="tspan3790-9"
     x="-163.69514"
     y="-216.49971"
     style="font-style:normal;font-variant:normal;font-weight:normal;font-stretch:normal;font-size:32px;line-height:1.25;font-family:Arial;-inkscape-font-specification:Arial;fill:#df0000;fill-opacity:1">J</tspan></text>



<g
   transform="matrix(-2.0401376,0,0,-2.2959795,124.70387,194.26049)"
   id="layer1-2-6-5"
   inkscape:label="bottomRightInnerSuit"><path
     style="fill:#df0000"
     inkscape:connector-curvature="0"
     id="dl-6-0"
     d="M 3.2433274,-4.7253274 C 1.1263274,-7.5893274 0,-10.5 0,-10.5 c 0,0 -1.1263274,2.9106726 -3.2433274,5.7746726 C -5.3613274,-1.8623274 -8,0 -8,0 -8,0 -5.3613274,1.8613274 -3.2433274,4.7263274 -1.1263274,7.5893274 0,10.5 0,10.5 0,10.5 1.1263274,7.5893274 3.2433274,4.7263274 5.3613274,1.8613274 8,0 8,0 8,0 5.3613274,-1.8623274 3.2433274,-4.7253274 z"
     sodipodi:nodetypes="ccccccccc" /></g><g
   transform="matrix(-1.128247,0,0,-1.128247,155.94028,201.48064)"
   id="layer1-2-6-2-4"
   inkscape:label="bottomRightSuit"><path
     style="fill:#df0000"
     inkscape:connector-curvature="0"
     id="dl-6-6-8"
     d="M 3.2433274,-4.7253274 C 1.1263274,-7.5893274 0,-10.5 0,-10.5 c 0,0 -1.1263274,2.9106726 -3.2433274,5.7746726 C -5.3613274,-1.8623274 -8,0 -8,0 -8,0 -5.3613274,1.8613274 -3.2433274,4.7263274 -1.1263274,7.5893274 0,10.5 0,10.5 0,10.5 1.1263274,7.5893274 3.2433274,4.7263274 5.3613274,1.8613274 8,0 8,0 8,0 5.3613274,-1.8623274 3.2433274,-4.7253274 z"
     sodipodi:nodetypes="ccccccccc" /></g></svg>
