<?xml version="1.0" encoding="UTF-8" standalone="no"?>
<!-- http://code.google.com/p/vector-playing-cards/ -->

<svg
   width="167.0869141pt"
   height="242.6669922pt"
   viewBox="0 0 167.0869141 242.6669922"
   xml:space="preserve"
   id="svg2"
   version="1.1"
   inkscape:version="1.4.3 (0d15f75, 2025-12-25)"
   sodipodi:docname="jack-spades-frame.svg"
   inkscape:export-filename="/home/byron/art/cards/final/PNGs/jack_of_spades2.png"
   inkscape:export-xdpi="215.44792"
   inkscape:export-ydpi="215.44792"
   xmlns:inkscape="http://www.inkscape.org/namespaces/inkscape"
   xmlns:sodipodi="http://sodipodi.sourceforge.net/DTD/sodipodi-0.dtd"
   xmlns:xlink="http://www.w3.org/1999/xlink"
   xmlns="http://www.w3.org/2000/svg"
   xmlns:svg="http://www.w3.org/2000/svg"
   xmlns:rdf="http://www.w3.org/1999/02/22-rdf-syntax-ns#"
   xmlns:cc="http://creativecommons.org/ns#"
   xmlns:dc="http://purl.org/dc/elements/1.1/"><metadata
   id="metadata43"><rdf:RDF><cc:Work
       rdf:about=""><dc:format>image/svg+xml</dc:format><dc:type
         rdf:resource="http://purl.org/dc/dcmitype/StillImage" /></cc:Work></rdf:RDF></metadata><defs
   id="defs41"><radialGradient
   inkscape:collect="always"
   xlink:href="#linearGradient3773"
   id="radialGradient3781"
   cx="-0.15782039"
   cy="-8.8345356"
   fx="-0.15782039"
   fy="-8.8345356"
   r="7.9997029"
   gradientTransform="matrix(-1.5842693,-0.02349808,0.03071979,-2.4775745,-0.24856378,-26.713507)"
   gradientUnits="userSpaceOnUse" /><linearGradient
   id="linearGradient3773"><stop
     style="stop-color:#000000;stop-opacity:1;"
     offset="0"
     id="stop3775" /><stop
     style="stop-color:#000000;stop-opacity:0.64885497;"
     offset="1"
     id="stop3777" /></linearGradient><radialGradient
   inkscape:collect="always"
   xlink:href="#linearGradient3773"
   id="radialGradient3957"
   cx="-0.15782039"
   cy="-8.8345356"
   fx="-0.15782039"
   fy="-8.8345356"
   r="7.9997029"
   gradientTransform="matrix(-1.5842693,-0.02349808,0.03071979,-2.4775745,-0.24856378,-26.713507)"
   gradientUnits="userSpaceOnUse" /><linearGradient
   id="linearGradient3959"><stop
     style="stop-color:#000000;stop-opacity:1;"
     offset="0"
     id="stop3961" /><stop
     style="stop-color:#000000;stop-opacity:0.64885497;"
     offset="1"
     id="stop3963" /></linearGradient><radialGradient
   r="81.902771"
   fy="509.47577"
   fx="168.02475"
   cy="509.47577"
   cx="168.02475"
   gradientTransform="matrix(1.2565605,-0.77740644,0.33663816,0.5361257,-221.20213,359.24256)"
   gradientUnits="userSpaceOnUse"
   id="radialGradient3975"
   xlink:href="#linearGradient3784-4"
   inkscape:collect="always" /><linearGradient
   id="linearGradient3784-4"><stop
     style="stop-color:#ffffff;stop-opacity:0.4351145;"
     offset="0"
     id="stop3786-8" /><stop
     style="stop-color:#000000;stop-opacity:0;"
     offset="1"
     id="stop3788-6" /></linearGradient><radialGradient
   inkscape:collect="always"
   xlink:href="#linearGradient3784-4-5"
   id="radialGradient3929"
   gradientUnits="userSpaceOnUse"
   gradientTransform="matrix(1.2565605,-0.77740644,0.33663816,0.5361257,-221.20213,359.24256)"
   cx="168.02475"
   cy="509.47577"
   fx="168.02475"
   fy="509.47577"
   r="81.902771" /><linearGradient
   id="linearGradient3784-4-5"><stop
     style="stop-color:#ffffff;stop-opacity:0.48854962;"
     offset="0"
     id="stop3786-8-0" /><stop
     style="stop-color:#000000;stop-opacity:0;"
     offset="1"
     id="stop3788-6-3" /></linearGradient><radialGradient
   inkscape:collect="always"
   xlink:href="#linearGradient3784-4-1"
   id="radialGradient3927"
   gradientUnits="userSpaceOnUse"
   gradientTransform="matrix(1.2565605,-0.77740644,0.33663816,0.5361257,-221.20213,359.24256)"
   cx="168.02475"
   cy="509.47577"
   fx="168.02475"
   fy="509.47577"
   r="81.902771" /><linearGradient
   id="linearGradient3784-4-1"><stop
     style="stop-color:#ffffff;stop-opacity:0.23664123;"
     offset="0"
     id="stop3786-8-03" /><stop
     style="stop-color:#000000;stop-opacity:0;"
     offset="1"
     id="stop3788-6-6" /></linearGradient><radialGradient
   r="7.9997029"
   fy="-8.8345356"
   fx="-0.15782039"
   cy="-8.8345356"
   cx="-0.15782039"
   gradientTransform="matrix(-1.5842693,-0.02349808,0.03071979,-2.4775745,-0.24856378,-26.713507)"
   gradientUnits="userSpaceOnUse"
   id="radialGradient3990"
   xlink:href="#linearGradient3773"
   inkscape:collect="always" /><radialGradient
   inkscape:collect="always"
   xlink:href="#linearGradient3784-4"
   id="radialGradient3161"
   gradientUnits="userSpaceOnUse"
   gradientTransform="matrix(1.2565605,-0.77740644,0.33663816,0.5361257,-221.20213,359.24256)"
   cx="168.02475"
   cy="509.47577"
   fx="168.02475"
   fy="509.47577"
   r="81.902771" /><radialGradient
   inkscape:collect="always"
   xlink:href="#linearGradient3784-4-5"
   id="radialGradient3163"
   gradientUnits="userSpaceOnUse"
   gradientTransform="matrix(1.2565605,-0.77740644,0.33663816,0.5361257,-221.20213,359.24256)"
   cx="168.02475"
   cy="509.47577"
   fx="168.02475"
   fy="509.47577"
   r="81.902771" /><radialGradient
   inkscape:collect="always"
   xlink:href="#linearGradient3784-4-1"
   id="radialGradient3165"
   gradientUnits="userSpaceOnUse"
   gradientTransform="matrix(1.2565605,-0.77740644,0.33663816,0.5361257,-221.20213,359.24256)"
   cx="168.02475"
   cy="509.47577"
   fx="168.02475"
   fy="509.47577"
   r="81.902771" />    <mask
   id="portraitHoleMask"
   maskUnits="userSpaceOnUse"
   x="0"
   y="0"
   width="167.0869141"
   height="242.6669922">
      <rect
   x="0"
   y="0"
   width="167.0869141"
   height="242.6669922"
   fill="white"
   id="rect1" />
      <g
   transform="matrix(0.73316112,0,0,0.81584336,22.32511,22.465901)"
   id="g1">
        <path
   fill="black"
   d="m 166.83691,235.54785 c 0,3.77735 -3.08691,6.86914 -6.87109,6.86914 H 7.1108398 C 3.3359375,242.41699 0.25,239.3252 0.25,235.54785 V 7.1201172 C 0.25,3.3427734 3.3359375,0.25 7.1108398,0.25 H 159.96582 c 3.78418,0 6.87109,3.0927734 6.87109,6.8701172 V 235.54785 z"
   id="path1" />
      </g>
    </mask>
</defs><sodipodi:namedview
   pagecolor="#ffffff"
   bordercolor="#666666"
   borderopacity="1"
   objecttolerance="10"
   gridtolerance="10"
   guidetolerance="10"
   inkscape:pageopacity="0"
   inkscape:pageshadow="2"
   inkscape:window-width="1536"
   inkscape:window-height="1054"
   id="namedview39"
   showgrid="false"
   inkscape:zoom="2.3918749"
   inkscape:cx="108.70134"
   inkscape:cy="158.66214"
   inkscape:window-x="51"
   inkscape:window-y="33"
   inkscape:window-maximized="0"
   inkscape:current-layer="svg2"
   inkscape:showpageshadow="2"
   inkscape:pagecheckerboard="0"
   inkscape:deskcolor="#d1d1d1"
   inkscape:document-units="pt" />
	





<text
   xml:space="preserve"
   style="font-style:normal;font-weight:normal;line-height:0%;font-family:'Bitstream Vera Sans';letter-spacing:0px;word-spacing:0px;fill:#000000;fill-opacity:1;stroke:none"
   x="3.5828743"
   y="28.013288"
   id="text3788"
   inkscape:label="topLeftRank"><tspan
     sodipodi:role="line"
     id="tspan3790"
     x="3.5828743"
     y="28.013288"
     style="font-style:normal;font-variant:normal;font-weight:normal;font-stretch:normal;font-size:32px;line-height:1.25;font-family:Arial;-inkscape-font-specification:Arial">J</tspan></text>






<g
   transform="matrix(2.1626081,0,0,1.9772974,42.158386,46.085355)"
   id="layer1-7"
   inkscape:label="topLeftInnerSuit"><path
     id="sl"
     d="M 7.989,3.103 C 7.747,-0.954 0.242,-8.59 0,-10.5 c -0.242,1.909 -7.747,9.545 -7.989,13.603 -0.169,2.868 1.695,4.057 3.39,4.057 1.8351685,-0.021581 3.3508701,-2.8006944 3.873,-3.341 0.242,0.716 -1.603,6.682 -2.179,6.682 l 5.811,0 C 2.33,10.501 0.485,4.535 0.727,3.819 1.1841472,4.3152961 2.5241276,7.0768295 4.601,7.16 6.295,7.159 8.158,5.971 7.989,3.103 z"
     inkscape:connector-curvature="0"
     style="fill:#000000"
     sodipodi:nodetypes="cccccccccc" /></g><g
   id="innerBorder"
   style="fill:none;stroke:#000000;stroke-width:1.82777798;stroke-miterlimit:4;stroke-dasharray:none"
   transform="matrix(0.73316112,0,0,0.81584336,22.32511,22.465901)"
   inkscape:label="innerBorder"><path
     inkscape:connector-curvature="0"
     style="fill:none;stroke-width:1.82777798;stroke-miterlimit:4;stroke-dasharray:none"
     d="m 166.83691,235.54785 c 0,3.77735 -3.08691,6.86914 -6.87109,6.86914 H 7.1108398 C 3.3359375,242.41699 0.25,239.3252 0.25,235.54785 V 7.1201172 C 0.25,3.3427734 3.3359375,0.25 7.1108398,0.25 H 159.96582 c 3.78418,0 6.87109,3.0927734 6.87109,6.8701172 V 235.54785 z"
     id="path5-8" /><g
     style="fill:none;stroke:none"
     id="g7-4"><g
       id="g9-3"
       style="fill:none" /></g><g
     id="g15-1"
     style="fill:none;stroke-width:1.82777798;stroke-miterlimit:4;stroke-dasharray:none" /><g
     id="g19-4"
     style="fill:none;stroke-width:1.82777798;stroke-miterlimit:4;stroke-dasharray:none" /><g
     style="fill:none;stroke:none"
     id="g23-9"><g
       id="g25-2"
       style="fill:none" /></g><g
     style="fill:none;stroke:none"
     id="g31-0"><g
       id="g33-6"
       style="fill:none" /></g></g><g
   transform="matrix(1.1387716,0,0,1.0411919,11.176453,41.884319)"
   id="layer1-7-2"
   inkscape:label="topLeftSuit"><path
     id="sl-7"
     d="M 7.989,3.103 C 7.747,-0.954 0.242,-8.59 0,-10.5 c -0.242,1.909 -7.747,9.545 -7.989,13.603 -0.169,2.868 1.695,4.057 3.39,4.057 1.8351685,-0.021581 3.3508701,-2.8006944 3.873,-3.341 0.242,0.716 -1.603,6.682 -2.179,6.682 l 5.811,0 C 2.33,10.501 0.485,4.535 0.727,3.819 1.1841472,4.3152961 2.5241276,7.0768295 4.601,7.16 6.295,7.159 8.158,5.971 7.989,3.103 z"
     inkscape:connector-curvature="0"
     style="fill:#000000"
     sodipodi:nodetypes="cccccccccc" /></g><text
   xml:space="preserve"
   style="font-style:normal;font-weight:normal;line-height:0%;font-family:'Bitstream Vera Sans';letter-spacing:0px;word-spacing:0px;fill:#000000;fill-opacity:1;stroke:none"
   x="-163.59825"
   y="-215.13002"
   id="text3788-1"
   transform="scale(-1)"
   inkscape:label="bottomLeftRank"><tspan
     sodipodi:role="line"
     id="tspan3790-0"
     x="-163.59825"
     y="-215.13002"
     style="font-style:normal;font-variant:normal;font-weight:normal;font-stretch:normal;font-size:32px;line-height:1.25;font-family:Arial;-inkscape-font-specification:Arial">J</tspan></text>



<g
   transform="matrix(-2.1626081,0,0,-1.9772974,125.02275,197.05794)"
   id="layer1-7-6"
   inkscape:label="bottomLeftInnerSuit"><path
     id="sl-1"
     d="M 7.989,3.103 C 7.747,-0.954 0.242,-8.59 0,-10.5 c -0.242,1.909 -7.747,9.545 -7.989,13.603 -0.169,2.868 1.695,4.057 3.39,4.057 1.8351685,-0.021581 3.3508701,-2.8006944 3.873,-3.341 0.242,0.716 -1.603,6.682 -2.179,6.682 l 5.811,0 C 2.33,10.501 0.485,4.535 0.727,3.819 1.1841472,4.3152961 2.5241276,7.0768295 4.601,7.16 6.295,7.159 8.158,5.971 7.989,3.103 z"
     inkscape:connector-curvature="0"
     style="fill:#000000"
     sodipodi:nodetypes="cccccccccc" /></g><g
   transform="matrix(-1.1387716,0,0,-1.0411919,156.00468,201.25898)"
   id="layer1-7-2-5"
   inkscape:label="bottomLeftSuit"><path
     id="sl-7-9"
     d="M 7.989,3.103 C 7.747,-0.954 0.242,-8.59 0,-10.5 c -0.242,1.909 -7.747,9.545 -7.989,13.603 -0.169,2.868 1.695,4.057 3.39,4.057 1.8351685,-0.021581 3.3508701,-2.8006944 3.873,-3.341 0.242,0.716 -1.603,6.682 -2.179,6.682 l 5.811,0 C 2.33,10.501 0.485,4.535 0.727,3.819 1.1841472,4.3152961 2.5241276,7.0768295 4.601,7.16 6.295,7.159 8.158,5.971 7.989,3.103 z"
     inkscape:connector-curvature="0"
     style="fill:#000000"
     sodipodi:nodetypes="cccccccccc" /></g></svg>
