<?xml version="1.0" encoding="UTF-8" standalone="no"?>
<!-- http://code.google.com/p/vector-playing-cards/ -->

<svg
   width="167.0869141pt"
   height="242.6669922pt"
   viewBox="0 0 167.0869141 242.6669922"
   xml:space="preserve"
   id="svg2"
   version="1.1"
   inkscape:version="1.4.3 (0d15f75, 2025-12-25)"
   sodipodi:docname="jack-clubs-frame.svg"
   inkscape:export-filename="/home/byron/art/cards/final/PNGs/jack_of_clubs2.png"
   inkscape:export-xdpi="215.44792"
   inkscape:export-ydpi="215.44792"
   xmlns:inkscape="http://www.inkscape.org/namespaces/inkscape"
   xmlns:sodipodi="http://sodipodi.sourceforge.net/DTD/sodipodi-0.dtd"
   xmlns="http://www.w3.org/2000/svg"
   xmlns:svg="http://www.w3.org/2000/svg"
   xmlns:rdf="http://www.w3.org/1999/02/22-rdf-syntax-ns#"
   xmlns:cc="http://creativecommons.org/ns#"
   xmlns:dc="http://purl.org/dc/elements/1.1/"><metadata
   id="metadata43"><rdf:RDF><cc:Work
       rdf:about=""><dc:format>image/svg+xml</dc:format><dc:type
         rdf:resource="http://purl.org/dc/dcmitype/StillImage" /></cc:Work></rdf:RDF></metadata><defs
   id="defs41"><linearGradient
   id="linearGradient2984"><stop
     style="stop-color:#000000;stop-opacity:1;"
     offset="0"
     id="stop2986" /><stop
     style="stop-color:#000000;stop-opacity:0.65648854;"
     offset="1"
     id="stop2988" /></linearGradient><linearGradient
   id="linearGradient3784"><stop
     style="stop-color:#ffffff;stop-opacity:0.53435117;"
     offset="0"
     id="stop3786" /><stop
     style="stop-color:#000000;stop-opacity:0;"
     offset="1"
     id="stop3788" /></linearGradient><linearGradient
   id="linearGradient3784-4"><stop
     style="stop-color:#ffffff;stop-opacity:0.51908398;"
     offset="0"
     id="stop3786-8" /><stop
     style="stop-color:#000000;stop-opacity:0;"
     offset="1"
     id="stop3788-6" /></linearGradient><linearGradient
   id="linearGradient3784-3"><stop
     style="stop-color:#ffffff;stop-opacity:0.70229006;"
     offset="0"
     id="stop3786-86" /><stop
     style="stop-color:#000000;stop-opacity:0;"
     offset="1"
     id="stop3788-2" /></linearGradient>    <mask
   id="portraitHoleMask"
   maskUnits="userSpaceOnUse"
   x="0"
   y="0"
   width="167.0869141"
   height="242.6669922">
      <rect
   x="0"
   y="0"
   width="167.0869141"
   height="242.6669922"
   fill="white"
   id="rect1" />
      <g
   transform="matrix(0.73316112,0,0,0.81584334,22.324833,22.465903)"
   id="g1">
        <path
   fill="black"
   d="m 166.83691,235.54785 c 0,3.77735 -3.08691,6.86914 -6.87109,6.86914 H 7.1108398 C 3.3359375,242.41699 0.25,239.3252 0.25,235.54785 V 7.1201172 C 0.25,3.3427734 3.3359375,0.25 7.1108398,0.25 H 159.96582 c 3.78418,0 6.87109,3.0927734 6.87109,6.8701172 z"
   id="path1" />
      </g>
    </mask>
</defs><sodipodi:namedview
   pagecolor="#ffffff"
   bordercolor="#666666"
   borderopacity="1"
   objecttolerance="10"
   gridtolerance="10"
   guidetolerance="10"
   inkscape:pageopacity="0"
   inkscape:pageshadow="2"
   inkscape:window-width="1419"
   inkscape:window-height="1056"
   id="namedview39"
   showgrid="false"
   inkscape:zoom="2.4336873"
   inkscape:cx="70.058302"
   inkscape:cy="158.40162"
   inkscape:window-x="93"
   inkscape:window-y="33"
   inkscape:window-maximized="0"
   inkscape:current-layer="svg2"
   inkscape:showpageshadow="2"
   inkscape:pagecheckerboard="0"
   inkscape:deskcolor="#d1d1d1"
   inkscape:document-units="pt" />
	










<g
   id="innerBorder"
   style="display:inline;fill:none;fill-rule:nonzero;stroke:#000000;stroke-width:1.82778;stroke-miterlimit:4;stroke-dasharray:none"
   transform="matrix(0.73316112,0,0,0.81584334,22.324833,22.465903)"
   inkscape:label="innerBorder"><path
     inkscape:connector-curvature="0"
     style="fill:none;stroke-width:1.82778;stroke-miterlimit:4;stroke-dasharray:none"
     d="m 166.83691,235.54785 c 0,3.77735 -3.08691,6.86914 -6.87109,6.86914 H 7.1108398 C 3.3359375,242.41699 0.25,239.3252 0.25,235.54785 V 7.1201172 C 0.25,3.3427734 3.3359375,0.25 7.1108398,0.25 H 159.96582 c 3.78418,0 6.87109,3.0927734 6.87109,6.8701172 z"
     id="path5-8" /><g
     style="fill:none;stroke:none;stroke-width:1.82778;stroke-miterlimit:4;stroke-dasharray:none"
     id="g7-4"><g
       id="g9-3"
       style="fill:none;stroke-width:1.82778;stroke-miterlimit:4;stroke-dasharray:none" /></g><g
     id="g15-1"
     style="fill:none;stroke-width:1.82778;stroke-miterlimit:4;stroke-dasharray:none" /><g
     id="g19-4"
     style="fill:none;stroke-width:1.82778;stroke-miterlimit:4;stroke-dasharray:none" /><g
     style="fill:none;stroke:none;stroke-width:1.82778;stroke-miterlimit:4;stroke-dasharray:none"
     id="g23-9"><g
       id="g25-2"
       style="fill:none;stroke-width:1.82778;stroke-miterlimit:4;stroke-dasharray:none" /></g><g
     style="fill:none;stroke:none;stroke-width:1.82778;stroke-miterlimit:4;stroke-dasharray:none"
     id="g31-0"><g
       id="g33-6"
       style="fill:none;stroke-width:1.82778;stroke-miterlimit:4;stroke-dasharray:none" /></g></g><text
   xml:space="preserve"
   style="font-style:normal;font-weight:normal;line-height:0%;font-family:'Bitstream Vera Sans';letter-spacing:0px;word-spacing:0px;fill:#000000;fill-opacity:1;stroke:none"
   x="3.6648798"
   y="26.56225"
   id="text3788"
   inkscape:label="topLeftRank"><tspan
     sodipodi:role="line"
     id="tspan3790"
     x="3.6648798"
     y="26.56225"
     style="font-style:normal;font-variant:normal;font-weight:normal;font-stretch:normal;font-size:32px;line-height:1.25;font-family:Arial;-inkscape-font-specification:Arial">J</tspan></text>



<g
   transform="matrix(2.0738852,0,0,2.0738852,-55.382858,-5.1569218)"
   id="layer1-1-4"
   inkscape:label="topLeftInnerSuit"><path
     id="cl-9"
     d="m 50.291466,22.698228 c 0,0 2.375,-1.9 2.375,-4.534 0,-1.542 -1.369,-4.102 -4.534,-4.102 -3.165,0 -4.534,2.561 -4.534,4.102 0,2.634 2.375,4.534 2.375,4.534 -2.638,-2.055 -7.341,-0.652 -7.341,3.455 0,2.056 1.68,4.318 4.318,4.318 3.165,0 4.534,-3.455 4.534,-3.455 0,0 0.402,3.938 -1.943,6.046 h 5.182 c -2.345,-2.107 -1.943,-6.046 -1.943,-6.046 0,0 1.369,3.455 4.534,3.455 2.639,0 4.318,-2.263 4.318,-4.318 0,-4.107 -4.703,-5.51 -7.341,-3.455 z"
     inkscape:connector-curvature="0"
     style="fill:#000000" /></g><g
   transform="matrix(1.0012222,0,0,1.0012222,-37.014834,15.927437)"
   id="layer1-1-4-16"
   inkscape:label="topLeftSuit"><path
     id="cl-9-4"
     d="m 50.291466,22.698228 c 0,0 2.375,-1.9 2.375,-4.534 0,-1.542 -1.369,-4.102 -4.534,-4.102 -3.165,0 -4.534,2.561 -4.534,4.102 0,2.634 2.375,4.534 2.375,4.534 -2.638,-2.055 -7.341,-0.652 -7.341,3.455 0,2.056 1.68,4.318 4.318,4.318 3.165,0 4.534,-3.455 4.534,-3.455 0,0 0.402,3.938 -1.943,6.046 h 5.182 c -2.345,-2.107 -1.943,-6.046 -1.943,-6.046 0,0 1.369,3.455 4.534,3.455 2.639,0 4.318,-2.263 4.318,-4.318 0,-4.107 -4.703,-5.51 -7.341,-3.455 z"
     inkscape:connector-curvature="0"
     style="fill:#000000" /></g><text
   xml:space="preserve"
   style="font-style:normal;font-weight:normal;line-height:0%;font-family:'Bitstream Vera Sans';letter-spacing:0px;word-spacing:0px;fill:#000000;fill-opacity:1;stroke:none"
   x="-163.02644"
   y="-215.77983"
   id="text3788-8"
   transform="scale(-1)"
   inkscape:label="bottomRightRank"><tspan
     sodipodi:role="line"
     id="tspan3790-0"
     x="-163.02644"
     y="-215.77983"
     style="font-style:normal;font-variant:normal;font-weight:normal;font-stretch:normal;font-size:32px;line-height:1.25;font-family:Arial;-inkscape-font-specification:Arial">J</tspan></text>



<g
   transform="matrix(-2.0738852,0,0,-2.0738852,222.07417,247.499)"
   id="layer1-1-4-8"
   inkscape:label="bottomRightInnerSuit"><path
     id="cl-9-1"
     d="m 50.291466,22.698228 c 0,0 2.375,-1.9 2.375,-4.534 0,-1.542 -1.369,-4.102 -4.534,-4.102 -3.165,0 -4.534,2.561 -4.534,4.102 0,2.634 2.375,4.534 2.375,4.534 -2.638,-2.055 -7.341,-0.652 -7.341,3.455 0,2.056 1.68,4.318 4.318,4.318 3.165,0 4.534,-3.455 4.534,-3.455 0,0 0.402,3.938 -1.943,6.046 h 5.182 c -2.345,-2.107 -1.943,-6.046 -1.943,-6.046 0,0 1.369,3.455 4.534,3.455 2.639,0 4.318,-2.263 4.318,-4.318 0,-4.107 -4.703,-5.51 -7.341,-3.455 z"
     inkscape:connector-curvature="0"
     style="fill:#000000" /></g><g
   transform="matrix(-1.0012222,0,0,-1.0012222,203.70615,226.41464)"
   id="layer1-1-4-16-5"
   inkscape:label="bottomRightSuit"><path
     id="cl-9-4-3"
     d="m 50.291466,22.698228 c 0,0 2.375,-1.9 2.375,-4.534 0,-1.542 -1.369,-4.102 -4.534,-4.102 -3.165,0 -4.534,2.561 -4.534,4.102 0,2.634 2.375,4.534 2.375,4.534 -2.638,-2.055 -7.341,-0.652 -7.341,3.455 0,2.056 1.68,4.318 4.318,4.318 3.165,0 4.534,-3.455 4.534,-3.455 0,0 0.402,3.938 -1.943,6.046 h 5.182 c -2.345,-2.107 -1.943,-6.046 -1.943,-6.046 0,0 1.369,3.455 4.534,3.455 2.639,0 4.318,-2.263 4.318,-4.318 0,-4.107 -4.703,-5.51 -7.341,-3.455 z"
     inkscape:connector-curvature="0"
     style="fill:#000000" /></g></svg>
