<?xml version="1.0" encoding="UTF-8" standalone="no"?>
<!-- http://code.google.com/p/vector-playing-cards/ -->

<svg
   width="167.0869141pt"
   height="242.6669922pt"
   viewBox="0 0 167.0869141 242.6669922"
   xml:space="preserve"
   id="svg2"
   version="1.1"
   inkscape:version="1.4.3 (0d15f75, 2025-12-25)"
   sodipodi:docname="queen-hearts-frame.svg"
   inkscape:export-filename="/home/byron/art/cards/final/PNGs/queen_of_hearts2.png"
   inkscape:export-xdpi="215.44792"
   inkscape:export-ydpi="215.44792"
   xmlns:inkscape="http://www.inkscape.org/namespaces/inkscape"
   xmlns:sodipodi="http://sodipodi.sourceforge.net/DTD/sodipodi-0.dtd"
   xmlns:xlink="http://www.w3.org/1999/xlink"
   xmlns="http://www.w3.org/2000/svg"
   xmlns:svg="http://www.w3.org/2000/svg"
   xmlns:rdf="http://www.w3.org/1999/02/22-rdf-syntax-ns#"
   xmlns:cc="http://creativecommons.org/ns#"
   xmlns:dc="http://purl.org/dc/elements/1.1/"><metadata
   id="metadata43"><rdf:RDF><cc:Work
       rdf:about=""><dc:format>image/svg+xml</dc:format><dc:type
         rdf:resource="http://purl.org/dc/dcmitype/StillImage" /></cc:Work></rdf:RDF></metadata><defs
   id="defs41"><radialGradient
   inkscape:collect="always"
   xlink:href="#linearGradient3773"
   id="radialGradient3781"
   cx="-0.15782039"
   cy="-8.8345356"
   fx="-0.15782039"
   fy="-8.8345356"
   r="7.9997029"
   gradientTransform="matrix(-1.5842693,-0.02349808,0.03071979,-2.4775745,-0.24856378,-26.713507)"
   gradientUnits="userSpaceOnUse" /><linearGradient
   id="linearGradient3773"><stop
     style="stop-color:#000000;stop-opacity:1;"
     offset="0"
     id="stop3775" /><stop
     style="stop-color:#000000;stop-opacity:0.64885497;"
     offset="1"
     id="stop3777" /></linearGradient><radialGradient
   inkscape:collect="always"
   xlink:href="#linearGradient3773"
   id="radialGradient3957"
   cx="-0.15782039"
   cy="-8.8345356"
   fx="-0.15782039"
   fy="-8.8345356"
   r="7.9997029"
   gradientTransform="matrix(-1.5842693,-0.02349808,0.03071979,-2.4775745,-0.24856378,-26.713507)"
   gradientUnits="userSpaceOnUse" /><linearGradient
   id="linearGradient3959"><stop
     style="stop-color:#000000;stop-opacity:1;"
     offset="0"
     id="stop3961" /><stop
     style="stop-color:#000000;stop-opacity:0.64885497;"
     offset="1"
     id="stop3963" /></linearGradient><radialGradient
   r="81.902771"
   fy="509.47577"
   fx="168.02475"
   cy="509.47577"
   cx="168.02475"
   gradientTransform="matrix(1.2565605,-0.77740644,0.33663816,0.5361257,-221.20213,359.24256)"
   gradientUnits="userSpaceOnUse"
   id="radialGradient3975"
   xlink:href="#linearGradient3784-4"
   inkscape:collect="always" /><linearGradient
   id="linearGradient3784-4"><stop
     style="stop-color:#ffffff;stop-opacity:0.4351145;"
     offset="0"
     id="stop3786-8" /><stop
     style="stop-color:#000000;stop-opacity:0;"
     offset="1"
     id="stop3788-6" /></linearGradient><radialGradient
   inkscape:collect="always"
   xlink:href="#linearGradient3784-4-5"
   id="radialGradient3929"
   gradientUnits="userSpaceOnUse"
   gradientTransform="matrix(1.2565605,-0.77740644,0.33663816,0.5361257,-221.20213,359.24256)"
   cx="168.02475"
   cy="509.47577"
   fx="168.02475"
   fy="509.47577"
   r="81.902771" /><linearGradient
   id="linearGradient3784-4-5"><stop
     style="stop-color:#ffffff;stop-opacity:0.48854962;"
     offset="0"
     id="stop3786-8-0" /><stop
     style="stop-color:#000000;stop-opacity:0;"
     offset="1"
     id="stop3788-6-3" /></linearGradient><radialGradient
   inkscape:collect="always"
   xlink:href="#linearGradient3784-4-1"
   id="radialGradient3927"
   gradientUnits="userSpaceOnUse"
   gradientTransform="matrix(1.2565605,-0.77740644,0.33663816,0.5361257,-221.20213,359.24256)"
   cx="168.02475"
   cy="509.47577"
   fx="168.02475"
   fy="509.47577"
   r="81.902771" /><linearGradient
   id="linearGradient3784-4-1"><stop
     style="stop-color:#ffffff;stop-opacity:0.23664123;"
     offset="0"
     id="stop3786-8-03" /><stop
     style="stop-color:#000000;stop-opacity:0;"
     offset="1"
     id="stop3788-6-6" /></linearGradient><linearGradient
   id="linearGradient3768"><stop
     style="stop-color:#df0000;stop-opacity:1;"
     offset="0"
     id="stop3770" /><stop
     style="stop-color:#df0000;stop-opacity:0.67175573;"
     offset="1"
     id="stop3772" /></linearGradient><linearGradient
   id="linearGradient3784-4-6"><stop
     style="stop-color:#ffffff;stop-opacity:0.31297711;"
     offset="0"
     id="stop3786-8-8" /><stop
     style="stop-color:#000000;stop-opacity:0;"
     offset="1"
     id="stop3788-6-8" /></linearGradient><radialGradient
   r="81.902771"
   fy="492.63205"
   fx="159.35434"
   cy="492.63205"
   cx="159.35434"
   gradientTransform="matrix(1.0894779,-0.71513803,0.44645273,0.65626582,-244.93331,290.9185)"
   gradientUnits="userSpaceOnUse"
   id="radialGradient4013-8"
   xlink:href="#linearGradient3784-4-2"
   inkscape:collect="always" /><linearGradient
   id="linearGradient3784-4-2"><stop
     style="stop-color:#ffffff;stop-opacity:0.29007635;"
     offset="0"
     id="stop3786-8-1" /><stop
     style="stop-color:#000000;stop-opacity:0;"
     offset="1"
     id="stop3788-6-5" /></linearGradient>    <mask
   id="portraitHoleMask"
   maskUnits="userSpaceOnUse"
   x="0"
   y="0"
   width="167.0869141"
   height="242.6669922">
      <rect
   x="0"
   y="0"
   width="167.0869141"
   height="242.6669922"
   fill="white"
   id="rect1" />
      <g
   transform="matrix(0.73316112,0,0,0.81584336,22.32511,22.465901)"
   id="g1">
        <path
   fill="black"
   d="m 166.83691,235.54785 c 0,3.77735 -3.08691,6.86914 -6.87109,6.86914 H 7.1108398 C 3.3359375,242.41699 0.25,239.3252 0.25,235.54785 V 7.1201172 C 0.25,3.3427734 3.3359375,0.25 7.1108398,0.25 H 159.96582 c 3.78418,0 6.87109,3.0927734 6.87109,6.8701172 V 235.54785 z"
   id="path1" />
      </g>
    </mask>
</defs><sodipodi:namedview
   pagecolor="#ffffff"
   bordercolor="#666666"
   borderopacity="1"
   objecttolerance="10"
   gridtolerance="10"
   guidetolerance="10"
   inkscape:pageopacity="0"
   inkscape:pageshadow="2"
   inkscape:window-width="1426"
   inkscape:window-height="969"
   id="namedview39"
   showgrid="false"
   inkscape:zoom="1.9972923"
   inkscape:cx="117.65929"
   inkscape:cy="150.70403"
   inkscape:window-x="134"
   inkscape:window-y="92"
   inkscape:window-maximized="0"
   inkscape:current-layer="svg2"
   inkscape:showpageshadow="2"
   inkscape:pagecheckerboard="0"
   inkscape:deskcolor="#d1d1d1"
   inkscape:document-units="pt" />
	



<text
   xml:space="preserve"
   style="font-style:normal;font-weight:normal;line-height:0%;font-family:'Bitstream Vera Sans';letter-spacing:0px;word-spacing:0px;fill:#df0000;fill-opacity:1;stroke:none"
   x="0.20024458"
   y="24.898649"
   id="text3788"
   inkscape:label="topLeftRank"><tspan
     sodipodi:role="line"
     id="tspan3790"
     x="0.20024458"
     y="24.898649"
     style="font-style:normal;font-variant:normal;font-weight:normal;font-stretch:normal;font-size:28.7045px;line-height:1.25;font-family:Arial;-inkscape-font-specification:Arial;fill:#df0000;fill-opacity:1">Q</tspan></text>










<g
   transform="matrix(2.4604243,0,0,2.302723,45.247185,47.893226)"
   id="layer1-9-6"
   style="fill:#df0000;fill-opacity:1"
   inkscape:label="topLeftInnerSuit"><path
     style="fill:#df0000;fill-opacity:1"
     inkscape:connector-curvature="0"
     id="hl-8"
     d="M 3.676,-9 C 0.433,-9 0,-5.523 0,-5.523 0,-5.523 -0.433,-9 -3.676,-9 -5.946,-9 -8,-7.441 -8,-4.5 -8,-0.614 -1.4208493,3.2938141 0,9 1.35201,3.2985969 8,-0.614 8,-4.5 8,-7.441 5.946,-9 3.676,-9 z"
     sodipodi:nodetypes="scsscss" /></g>



<g
   transform="matrix(1.1121828,0,0,1.0408972,11.308902,37.479724)"
   id="layer1-9-6-9"
   style="fill:#df0000;fill-opacity:1"
   inkscape:label="topLeftSuit"><path
     style="fill:#df0000;fill-opacity:1"
     inkscape:connector-curvature="0"
     id="hl-8-17"
     d="M 3.676,-9 C 0.433,-9 0,-5.523 0,-5.523 0,-5.523 -0.433,-9 -3.676,-9 -5.946,-9 -8,-7.441 -8,-4.5 -8,-0.614 -1.4208493,3.2938141 0,9 1.35201,3.2985969 8,-0.614 8,-4.5 8,-7.441 5.946,-9 3.676,-9 z"
     sodipodi:nodetypes="scsscss" /></g>
<g
   id="innerBorder"
   style="fill:none;stroke:#000000;stroke-width:1.82777798;stroke-miterlimit:4;stroke-dasharray:none"
   transform="matrix(0.73316112,0,0,0.81584336,22.32511,22.465901)"
   inkscape:label="innerBorder"><path
     inkscape:connector-curvature="0"
     style="fill:none;stroke-width:1.82777798;stroke-miterlimit:4;stroke-dasharray:none"
     d="m 166.83691,235.54785 c 0,3.77735 -3.08691,6.86914 -6.87109,6.86914 H 7.1108398 C 3.3359375,242.41699 0.25,239.3252 0.25,235.54785 V 7.1201172 C 0.25,3.3427734 3.3359375,0.25 7.1108398,0.25 H 159.96582 c 3.78418,0 6.87109,3.0927734 6.87109,6.8701172 V 235.54785 z"
     id="path5-8" /><g
     style="fill:none;stroke:none"
     id="g7-4"><g
       id="g9-3"
       style="fill:none" /></g><g
     id="g15-1"
     style="fill:none;stroke-width:1.82777798;stroke-miterlimit:4;stroke-dasharray:none" /><g
     id="g19-4"
     style="fill:none;stroke-width:1.82777798;stroke-miterlimit:4;stroke-dasharray:none" /><g
     style="fill:none;stroke:none"
     id="g23-9"><g
       id="g25-2"
       style="fill:none" /></g><g
     style="fill:none;stroke:none"
     id="g31-0"><g
       id="g33-6"
       style="fill:none" /></g></g><text
   xml:space="preserve"
   style="font-style:normal;font-weight:normal;line-height:0%;font-family:'Bitstream Vera Sans';letter-spacing:0px;word-spacing:0px;fill:#df0000;fill-opacity:1;stroke:none"
   x="-166.86617"
   y="-217.58284"
   id="text3788-8"
   transform="scale(-1)"
   inkscape:label="bottomLeftRank"><tspan
     sodipodi:role="line"
     id="tspan3790-8"
     x="-166.86617"
     y="-217.58284"
     style="font-style:normal;font-variant:normal;font-weight:normal;font-stretch:normal;font-size:28.7045px;line-height:1.25;font-family:Arial;-inkscape-font-specification:Arial;fill:#df0000;fill-opacity:1">Q</tspan></text>




<g
   transform="matrix(-2.4604243,0,0,-2.302723,121.53638,194.58827)"
   id="layer1-9-6-4"
   style="fill:#df0000;fill-opacity:1"
   inkscape:label="bottomLeftInnerSuit"><path
     style="fill:#df0000;fill-opacity:1"
     inkscape:connector-curvature="0"
     id="hl-8-3"
     d="M 3.676,-9 C 0.433,-9 0,-5.523 0,-5.523 0,-5.523 -0.433,-9 -3.676,-9 -5.946,-9 -8,-7.441 -8,-4.5 -8,-0.614 -1.4208493,3.2938141 0,9 1.35201,3.2985969 8,-0.614 8,-4.5 8,-7.441 5.946,-9 3.676,-9 z"
     sodipodi:nodetypes="scsscss" /></g><g
   transform="matrix(-1.1121828,0,0,-1.0408972,155.75752,205.00177)"
   id="layer1-9-6-9-1"
   style="fill:#df0000;fill-opacity:1"
   inkscape:label="bottomLeftSuit"><path
     style="fill:#df0000;fill-opacity:1"
     inkscape:connector-curvature="0"
     id="hl-8-17-4"
     d="M 3.676,-9 C 0.433,-9 0,-5.523 0,-5.523 0,-5.523 -0.433,-9 -3.676,-9 -5.946,-9 -8,-7.441 -8,-4.5 -8,-0.614 -1.4208493,3.2938141 0,9 1.35201,3.2985969 8,-0.614 8,-4.5 8,-7.441 5.946,-9 3.676,-9 z"
     sodipodi:nodetypes="scsscss" /></g></svg>
